<?xml version="1.0" encoding="UTF-8" standalone="no"?>
<!-- Created with Inkscape (http://www.inkscape.org/) -->

<svg
   width="333.28302mm"
   height="165.31133mm"
   viewBox="0 0 333.28302 165.31132"
   version="1.1"
   id="svg1"
   inkscape:version="1.4 (e7c3feb1, 2024-10-09)"
   sodipodi:docname="양말.svg"
   xmlns:inkscape="http://www.inkscape.org/namespaces/inkscape"
   xmlns:sodipodi="http://sodipodi.sourceforge.net/DTD/sodipodi-0.dtd"
   xmlns="http://www.w3.org/2000/svg"
   xmlns:svg="http://www.w3.org/2000/svg">
  <sodipodi:namedview
     id="namedview1"
     pagecolor="#ffffff"
     bordercolor="#000000"
     borderopacity="0.25"
     inkscape:showpageshadow="2"
     inkscape:pageopacity="0.0"
     inkscape:pagecheckerboard="0"
     inkscape:deskcolor="#d1d1d1"
     inkscape:document-units="mm"
     inkscape:zoom="0.37772166"
     inkscape:cx="718.78324"
     inkscape:cy="190.61655"
     inkscape:window-width="1512"
     inkscape:window-height="839"
     inkscape:window-x="2333"
     inkscape:window-y="248"
     inkscape:window-maximized="0"
     inkscape:current-layer="svg1" />
  <defs
     id="defs1" />
  <path
     style="fill:#94b4c1;fill-opacity:1;stroke:none;stroke-width:2.69574;stroke-linecap:round;stroke-linejoin:round;stroke-opacity:1"
     d="m 65.760358,106.70461 c 0,0 72.877432,-3.68481 91.711012,-2.04712 18.83338,1.63771 9.8261,15.14868 18.01456,25.79369 8.18844,10.64502 21.69945,-6.96018 15.96748,-24.15598 -5.73197,-17.195834 12.69219,-17.195834 -2.86589,-27.022015 -15.55807,-9.826162 -37.66715,2.865967 -54.86288,-1.228258 -17.19572,-4.094246 -45.855408,2.456535 -54.043853,-1.63771 -8.188652,-4.094226 -11.463958,18.833517 -11.463958,18.833517 z"
     id="path7-2"
     sodipodi:nodetypes="csssssscc" />
  <path
     style="fill:#94b4c1;fill-opacity:1;stroke:none;stroke-width:2.69574;stroke-linecap:round;stroke-linejoin:round;stroke-opacity:1"
     d="m 132.45698,58.376799 c 0,0 69.05309,23.587695 85.93844,32.08892 16.88516,8.501165 3.5118,17.711621 7.17195,30.633361 3.65996,12.92177 22.7334,1.57786 23.78278,-16.51773 1.04958,-18.095609 18.16171,-11.267173 7.35319,-26.159752 C 245.8952,63.52902 220.6566,67.123116 206.20296,56.947339 191.74913,46.771524 162.70262,42.233818 156.61492,35.396329 c -6.08811,-6.837549 -17.62773,13.24344 -17.62773,13.24344 z"
     id="path7-0-7"
     sodipodi:nodetypes="csssssscc" />
</svg>
